<?xml version="1.0" encoding="utf-8"?>
<!-- Generator: Adobe Illustrator 21.0.0, SVG Export Plug-In . SVG Version: 6.00 Build 0)  -->
<svg version="1.1" id="Layer_1" xmlns="http://www.w3.org/2000/svg" xmlns:xlink="http://www.w3.org/1999/xlink" x="0px" y="0px"
	 viewBox="0 0 16 16" style="enable-background:new 0 0 16 16;" xml:space="preserve">
<style type="text/css">
	.st0{fill:#0A0909;}
	.st1{fill:#FFFFFF;}
</style>
<path class="st0" d="M2,2c0-1.1,0.9-2,2-2h8c1.1,0,2,0.9,2,2v13.5c0,0.3-0.2,0.5-0.5,0.5c-0.1,0-0.2,0-0.3-0.1L8,13.1l-5.2,2.8
	c-0.2,0.2-0.5,0.1-0.7-0.1C2,15.7,2,15.6,2,15.5V2z"/>
<g id="XMLID_1_">
	<g>
		<path class="st1" d="M13,2v12.6l-4.7-2.5c-0.2-0.1-0.4-0.1-0.6,0L3,14.6V2c0-0.5,0.5-1,1-1h8C12.6,1,13,1.5,13,2z"/>
	</g>
	<g>
	</g>
</g>
</svg>
